<svg xmlns="http://www.w3.org/2000/svg" viewBox="0 0 200 260"><defs><style>.a{fill:#d3d3d3;}.b{fill:#fff;}.c{fill:none;}</style></defs><title>exampleImg</title><rect class="a" width="200" height="260"/><path class="b" d="M200,248.73s-.43,1.18-1.82.24a81.76,81.76,0,0,0-18-8.82c-5.33-2-10.87-3.19-16.32-4.74-7.76-2.21-15.24-5.11-21.95-9.7a28.35,28.35,0,0,1-9.29-9.63,18.14,18.14,0,0,1-1.88-7c-.47-4.53-.62-9.09-.76-13.64-.13-4.15-.16-8.3-.31-12.45a1.65,1.65,0,0,1,.87-1.63,52.75,52.75,0,0,0,21.2-26.5,46.34,46.34,0,0,0,2.35-8.34c.09-.53.3-.82.92-.78a9.66,9.66,0,0,0,8-3.6c4.25-4.78,6.27-10.53,7-16.81a20.34,20.34,0,0,0-.65-8.67,10.33,10.33,0,0,0-5.13-6.38.82.82,0,0,1-.47-1c.77-5.82,1.36-11.66,1.72-17.52.31-5.17.44-10.34.27-15.51a101.67,101.67,0,0,0-4-26.79c-2.11-6.85-5-13.3-9.71-18.8A34.59,34.59,0,0,0,130.7,18.4a16.66,16.66,0,0,0-3.31-.24,1.26,1.26,0,0,1-1.22-.53c-5-7-12.13-10.48-20.35-12.07A62.14,62.14,0,0,0,90.29,4.8,97.69,97.69,0,0,0,69,8.55a98.87,98.87,0,0,0-16.9,6,59,59,0,0,0-14,9.45c-9.64,8.9-15,20.11-17.7,32.77a94.14,94.14,0,0,0-1.81,14.59,117.5,117.5,0,0,0,.53,17.5,124.58,124.58,0,0,0,3.57,19.91,1.16,1.16,0,0,1-.62,1.56c-3.19,1.83-4.42,4.84-4.84,8.3a26.52,26.52,0,0,0,.87,9.63c.4,1.57.39,3.19.71,4.77a20.71,20.71,0,0,0,3.84,9.12A12.89,12.89,0,0,0,29.94,147a1.49,1.49,0,0,1,1.27,1.22A58,58,0,0,0,42.32,169.8,63.7,63.7,0,0,0,55,181.88a1.6,1.6,0,0,1,.75,1.54q-.36,7.71-.68,15.4c-.07,1.67-.05,3.33-.17,5-.15,2.3-.06,4.62-.24,6.91a16.78,16.78,0,0,1-2.75,7.42c-3.08,5-7.6,8.41-12.67,11.18C35,231.62,30.42,233,26,234.83c-9.14,3.74-26,11.46-26,11.46V0S89.59.19,94.05,0C97-.12,200,0,200,0Z"/><rect class="c" width="200" height="260"/></svg>